<svg width="30" height="30" viewBox="0 0 30 30" fill="none" xmlns="http://www.w3.org/2000/svg">
<circle cx="15" cy="15" r="15" fill="url(#paint0_linear_334_2219)"/>
<path d="M15.3704 19.2937C15.3704 19.1694 15.321 19.0502 15.2331 18.9623C15.1452 18.8744 15.0259 18.825 14.9016 18.825H11.85L19.6594 11.0203C19.7467 10.9325 19.7957 10.8137 19.7957 10.6898C19.7957 10.566 19.7467 10.4472 19.6594 10.3594C19.6158 10.3154 19.564 10.2806 19.5069 10.2568C19.4498 10.233 19.3885 10.2207 19.3266 10.2207C19.2647 10.2207 19.2035 10.233 19.1463 10.2568C19.0892 10.2806 19.0374 10.3154 18.9938 10.3594L11.1985 18.1547V15.1265C11.1985 15.0022 11.1491 14.883 11.0612 14.7951C10.9733 14.7072 10.8541 14.6578 10.7297 14.6578C10.6054 14.6578 10.4862 14.7072 10.3983 14.7951C10.3104 14.883 10.261 15.0022 10.261 15.1265V19.3453C10.261 19.4572 10.3054 19.5645 10.3846 19.6436C10.4637 19.7227 10.571 19.7672 10.6829 19.7672H14.9016C14.9636 19.7672 15.0249 19.7549 15.0821 19.7311C15.1393 19.7072 15.1911 19.6723 15.2347 19.6282C15.2783 19.5842 15.3128 19.532 15.336 19.4746C15.3593 19.4171 15.371 19.3557 15.3704 19.2937Z" fill="black"/>
<defs>
<linearGradient id="paint0_linear_334_2219" x1="15" y1="0" x2="15" y2="30" gradientUnits="userSpaceOnUse">
<stop stop-color="#FFEBA2"/>
<stop offset="1" stop-color="#FFB34B"/>
</linearGradient>
</defs>
</svg>
