<svg width="37" height="37" viewBox="0 0 37 37" fill="none" xmlns="http://www.w3.org/2000/svg">
<path d="M18.5 37C28.7173 37 37 28.7173 37 18.5C37 8.28273 28.7173 0 18.5 0C8.28273 0 0 8.28273 0 18.5C0 28.7173 8.28273 37 18.5 37Z" fill="#FE7E73"/>
<path d="M19 8.83325C16.5984 8.83325 14.6459 10.7858 14.6459 13.1874C14.6459 15.5433 16.4884 17.4499 18.89 17.5324C18.9634 17.5233 19.0367 17.5233 19.0917 17.5324C19.11 17.5324 19.1192 17.5324 19.1375 17.5324C19.1467 17.5324 19.1467 17.5324 19.1559 17.5324C21.5025 17.4499 23.345 15.5433 23.3542 13.1874C23.3542 10.7858 21.4017 8.83325 19 8.83325Z" fill="white"/>
<path d="M23.6566 19.9709C21.0991 18.2659 16.9283 18.2659 14.3525 19.9709C13.1883 20.7501 12.5466 21.8042 12.5466 22.9317C12.5466 24.0592 13.1883 25.1042 14.3433 25.8742C15.6266 26.7359 17.3133 27.1667 19 27.1667C20.6866 27.1667 22.3733 26.7359 23.6566 25.8742C24.8116 25.0951 25.4533 24.0501 25.4533 22.9134C25.4441 21.7859 24.8116 20.7409 23.6566 19.9709Z" fill="white"/>
</svg>
