<svg width="28" height="28" viewBox="0 0 28 28" fill="none" xmlns="http://www.w3.org/2000/svg">
<rect width="28" height="27.3171" rx="4" fill="white"/>
<rect x="0.5" y="0.5" width="27" height="26.3171" rx="3.5" stroke="black" stroke-opacity="0.1"/>
<path d="M11.5298 17.0883C11.5298 16.9244 11.5949 16.7673 11.7107 16.6515C11.8265 16.5357 11.9836 16.4706 12.1474 16.4706H15.8533C16.0171 16.4706 16.1742 16.5357 16.2901 16.6515C16.4059 16.7673 16.471 16.9244 16.471 17.0883C16.471 17.2521 16.4059 17.4092 16.2901 17.525C16.1742 17.6408 16.0171 17.7059 15.8533 17.7059H12.1474C11.9836 17.7059 11.8265 17.6408 11.7107 17.525C11.5949 17.4092 11.5298 17.2521 11.5298 17.0883ZM9.05921 13.3824C9.05921 13.2186 9.12428 13.0615 9.24012 12.9456C9.35595 12.8298 9.51305 12.7647 9.67686 12.7647H18.3239C18.4877 12.7647 18.6448 12.8298 18.7607 12.9456C18.8765 13.0615 18.9416 13.2186 18.9416 13.3824C18.9416 13.5462 18.8765 13.7033 18.7607 13.8191C18.6448 13.9349 18.4877 14 18.3239 14H9.67686C9.51305 14 9.35595 13.9349 9.24012 13.8191C9.12428 13.7033 9.05921 13.5462 9.05921 13.3824ZM6.58862 9.67649C6.58862 9.51267 6.6537 9.35557 6.76953 9.23974C6.88536 9.12391 7.04246 9.05884 7.20627 9.05884H20.7945C20.9583 9.05884 21.1154 9.12391 21.2312 9.23974C21.3471 9.35557 21.4121 9.51267 21.4121 9.67649C21.4121 9.8403 21.3471 9.9974 21.2312 10.1132C21.1154 10.2291 20.9583 10.2941 20.7945 10.2941H7.20627C7.04246 10.2941 6.88536 10.2291 6.76953 10.1132C6.6537 9.9974 6.58862 9.8403 6.58862 9.67649Z" fill="#3B5998"/>
</svg>
