<svg width="20" height="20" viewBox="0 0 20 20" fill="none" xmlns="http://www.w3.org/2000/svg">
<path d="M17.6217 7.14657L11.33 2.03407C10.5592 1.40824 9.44084 1.40824 8.67 2.03407L2.37917 7.14574C2.15833 7.3249 2.0325 7.58991 2.0325 7.87324V17.4924C2.0325 18.0091 2.45333 18.4341 2.97 18.4341H7.18834C7.705 18.4341 8.12584 18.0091 8.12584 17.4924V11.4041H11.875V17.4924C11.875 18.0091 12.2958 18.4341 12.8125 18.4341H17.0308C17.5475 18.4341 17.9683 18.0091 17.9683 17.4924V7.87324C17.9675 7.58991 17.8417 7.32491 17.6217 7.14657ZM17.03 17.4974H12.8117V11.3999C12.8117 10.8832 12.3908 10.4674 11.8742 10.4674H8.125C7.60834 10.4674 7.1875 10.8832 7.1875 11.3999V17.4974H2.97V7.87324L9.26167 2.76157C9.68917 2.41324 10.3117 2.41407 10.7392 2.76157L17.0308 7.87324L17.03 17.4974Z" fill="#4E5B5F"/>
</svg>
