<svg width="22" height="22" viewBox="0 0 22 22" fill="none" xmlns="http://www.w3.org/2000/svg">
<g clip-path="url(#clip0_255_680)">
<path d="M17.6 6.15991C17.6 6.15991 6.42533 6.15991 4.40001 6.15991C3.04657 6.15991 2.20001 7.47991 2.20001 8.35991V17.7689C2.20001 18.8909 3.10905 19.7999 4.23105 19.7999H17.769C18.8905 19.7999 19.8 18.8909 19.8 17.7689V8.29215C19.8 7.17147 18.7216 6.15991 17.6 6.15991Z" stroke="#4E5B5F" stroke-miterlimit="10" stroke-linecap="round" stroke-linejoin="round"/>
<path d="M16.28 4.83994V3.36946C16.28 1.90382 15.9637 1.48098 14.1451 1.96058C12.8093 2.31302 4.99269 4.48002 4.99269 4.48002C2.58545 5.3873 2.21805 6.1595 2.21805 7.91906L2.20001 8.99926" stroke="#4E5B5F" stroke-miterlimit="10" stroke-linejoin="round"/>
<path d="M16.9409 14.0799C16.3333 14.0799 15.84 13.588 15.84 12.9803C15.84 12.3727 16.3333 11.8799 16.9409 11.8799C17.5468 11.8799 18.04 12.3727 18.04 12.9803C18.04 13.588 17.5468 14.0799 16.9409 14.0799Z" fill="#4E5B5F"/>
</g>
<defs>
<clipPath id="clip0_255_680">
<rect width="22" height="22" fill="white"/>
</clipPath>
</defs>
</svg>
